name C:\Users\u0101727\Documents\MyRepositories\upper-imu-dc\Results\main_mocap_tracking\Case_10\FLX01_linearAccelerations_bodyFrame.mot
datacolumns 4
datarows 117
range 3.51000000 4.67000000
endheader 
time	radius_imu_x	radius_imu_y	radius_imu_z	
          3.51000000	         -0.66678239	         -9.68043304	          1.48908161	
          3.52000000	         -0.75178307	         -9.66789955	          1.51390012	
          3.53000000	         -0.81585417	         -9.65283209	          1.55766639	
          3.54000000	         -0.85423667	         -9.63394016	          1.61876876	
          3.55000000	         -0.86728142	         -9.61010885	          1.69442120	
          3.56000000	         -0.86170566	         -9.58217458	          1.78052963	
          3.57000000	         -0.84780088	         -9.55321732	          1.87225911	
          3.58000000	         -0.83519549	         -9.52763533	          1.96478331	
          3.59000000	         -0.82990925	         -9.50956352	          2.05370727	
          3.60000000	         -0.83356941	         -9.50161591	          2.13498486	
          3.61000000	         -0.84331147	         -9.50434109	          2.20488639	
          3.62000000	         -0.85131110	         -9.51626470	          2.26054248	
          3.63000000	         -0.84534850	         -9.53438120	          2.30062331	
          3.64000000	         -0.81190829	         -9.55493175	          2.32536883	
          3.65000000	         -0.74041415	         -9.57409270	          2.33600424	
          3.66000000	         -0.62615231	         -9.58834589	          2.33406910	
          3.67000000	         -0.47158996	         -9.59474946	          2.32079878	
          3.68000000	         -0.28716647	         -9.59142866	          2.29644188	
          3.69000000	         -0.09183665	         -9.57827468	          2.25964925	
          3.70000000	          0.08901558	         -9.55736100	          2.20769349	
          3.71000000	          0.23181675	         -9.53252012	          2.13842014	
          3.72000000	          0.32551780	         -9.50836703	          2.05293029	
          3.73000000	          0.37573603	         -9.48957027	          1.95660119	
          3.74000000	          0.40082686	         -9.48031918	          1.85794100	
          3.75000000	          0.42450766	         -9.48348043	          1.76644639	
          3.76000000	          0.46805537	         -9.49954660	          1.69046422	
          3.77000000	          0.54422342	         -9.52591140	          1.63571874	
          3.78000000	          0.65400261	         -9.55716012	          1.60470254	
          3.79000000	          0.78623059	         -9.58646460	          1.59672023	
          3.80000000	          0.92031560	         -9.60747906	          1.60851611	
          3.81000000	          1.03184884	         -9.61582951	          1.63531466	
          3.82000000	          1.09945583	         -9.60952420	          1.67224434	
          3.83000000	          1.11043684	         -9.58843139	          1.71575329	
          3.84000000	          1.06341821	         -9.55347433	          1.76446395	
          3.85000000	          0.96779477	         -9.50612633	          1.81911751	
          3.86000000	          0.84071193	         -9.44833681	          1.88167994	
          3.87000000	          0.70262722	         -9.38275360	          1.95402587	
          3.88000000	          0.57270915	         -9.31301184	          2.03672868	
          3.89000000	          0.46536463	         -9.24388301	          2.12830610	
          3.90000000	          0.38853660	         -9.18107728	          2.22502246	
          3.91000000	          0.34356694	         -9.13049016	          2.32124383	
          3.92000000	          0.32608620	         -9.09681043	          2.41029590	
          3.93000000	          0.32755771	         -9.08181448	          2.48554790	
          3.94000000	          0.33736708	         -9.08311761	          2.54135158	
          3.95000000	          0.34545527	         -9.09415691	          2.57360980	
          3.96000000	          0.34508801	         -9.10568920	          2.58001166	
          3.97000000	          0.33469490	         -9.10830344	          2.56005739	
          3.98000000	          0.31783781	         -9.09488373	          2.51493919	
          3.99000000	          0.30132457	         -9.06202656	          2.44735962	
          4.00000000	          0.29233029	         -9.01008850	          2.36139701	
          4.01000000	          0.29560961	         -8.94228159	          2.26245079	
          4.02000000	          0.31166815	         -8.86350876	          2.15717024	
          4.03000000	          0.33634279	         -8.77938948	          2.05317968	
          4.04000000	          0.36149700	         -8.69555581	          1.95845036	
          4.05000000	          0.37583248	         -8.61709040	          1.88041469	
          4.06000000	          0.36518532	         -8.54798288	          1.82515057	
          4.07000000	          0.31287242	         -8.49067502	          1.79687161	
          4.08000000	          0.20115429	         -8.44593198	          1.79768655	
          4.09000000	          0.01422487	         -8.41308903	          1.82750967	
          4.10000000	         -0.25795552	         -8.39032743	          1.88410223	
          4.11000000	         -0.61646996	         -8.37464523	          1.96327777	
          4.12000000	         -1.05205755	         -8.36170166	          2.05934338	
          4.13000000	         -1.54544945	         -8.34606806	          2.16585719	
          4.14000000	         -2.06872453	         -8.32215323	          2.27661059	
          4.15000000	         -2.58740469	         -8.28549979	          2.38655616	
          4.16000000	         -3.06356487	         -8.23384555	          2.49243575	
          4.17000000	         -3.46021927	         -8.16743620	          2.59302639	
          4.18000000	         -3.74668966	         -8.08846656	          2.68898384	
          4.19000000	         -3.90396993	         -8.00013456	          2.78224541	
          4.20000000	         -3.92883325	         -7.90605064	          2.87501090	
          4.21000000	         -3.83622778	         -7.81011214	          2.96833325	
          4.22000000	         -3.66039611	         -7.71617066	          3.06036978	
          4.23000000	         -3.45399556	         -7.62693852	          3.14487903	
          4.24000000	         -3.28112363	         -7.54241217	          3.21169784	
          4.25000000	         -3.20030725	         -7.45888333	          3.25087300	
          4.26000000	         -3.24428470	         -7.36992639	          3.25883573	
          4.27000000	         -3.41181977	         -7.26956546	          3.24195816	
          4.28000000	         -3.67612925	         -7.15570531	          3.21495818	
          4.29000000	         -3.99932225	         -7.03120440	          3.19599371	
          4.30000000	         -4.34232662	         -6.90217615	          3.20154905	
          4.31000000	         -4.66778824	         -6.77539753	          3.24298479	
          4.32000000	         -4.93852696	         -6.65663028	          3.32532617	
          4.33000000	         -5.11588504	         -6.55005053	          3.44815408	
          4.34000000	         -5.16249136	         -6.45792271	          3.60787387	
          4.35000000	         -5.05230225	         -6.37989266	          3.79987085	
          4.36000000	         -4.78596582	         -6.31219251	          4.01878583	
          4.37000000	         -4.40316783	         -6.24759137	          4.25634933	
          4.38000000	         -3.97981203	         -6.17654551	          4.49896180	
          4.39000000	         -3.60514024	         -6.08944963	          4.72854553	
          4.40000000	         -3.35436052	         -5.97983412	          4.92672029	
          4.41000000	         -3.27780227	         -5.84771656	          5.07878828	
          4.42000000	         -3.40195680	         -5.70095911	          5.17651163	
          4.43000000	         -3.72181381	         -5.55280196	          5.22141646	
          4.44000000	         -4.18591760	         -5.41647261	          5.22697948	
          4.45000000	         -4.69797854	         -5.30004269	          5.21540314	
          4.46000000	         -5.14510942	         -5.20406954	          5.20935656	
          4.47000000	         -5.43614093	         -5.12216391	          5.22423204	
          4.48000000	         -5.52726722	         -5.04308086	          5.26519973	
          4.49000000	         -5.42399497	         -4.95320059	          5.32893631	
          4.50000000	         -5.16677174	         -4.83954246	          5.40683059	
          4.51000000	         -4.81720975	         -4.69382985	          5.48666842	
          4.52000000	         -4.44780281	         -4.51634828	          5.55360619	
          4.53000000	         -4.12532893	         -4.31675393	          5.59344202	
          4.54000000	         -3.89303091	         -4.11052326	          5.59755080	
          4.55000000	         -3.76405117	         -3.91266649	          5.56618160	
          4.56000000	         -3.72144597	         -3.73168800	          5.50932010	
          4.57000000	         -3.72286441	         -3.56646629	          5.44482966	
          4.58000000	         -3.72008922	         -3.40743141	          5.39297074	
          4.59000000	         -3.68654981	         -3.24143958	          5.36988028	
          4.60000000	         -3.63212267	         -3.05775168	          5.38419455	
          4.61000000	         -3.59564146	         -2.85190994	          5.43817911	
          4.62000000	         -3.61930785	         -2.62619754	          5.53209377	
          4.63000000	         -3.72278608	         -2.38761930	          5.66820242	
          4.64000000	         -3.89929512	         -2.14503220	          5.85025560	
          4.65000000	         -4.13166296	         -1.90671293	          6.07929798	
          4.66000000	         -4.40375077	         -1.67893481	          6.35118999	
          4.67000000	         -4.69825738	         -1.46526924	          6.65800865	
